<svg xmlns="http://www.w3.org/2000/svg" viewBox="0 0 1000 166.4" style="enable-background:new 0 0 1000 166.4" xml:space="preserve"><path d="M762.008.02v130.664c0 8.166 4.537 12.703 12.704 13.61h42.647v14.519c0 1.814-.908 2.722-2.722 2.722h-69.869c-21.777 0-24.5-11.796-24.5-22.685V9.095c0-6.352 2.723-9.074 9.982-9.074h31.758M681.432.02v152.44c0 6.353-2.722 8.167-9.074 8.167h-32.665V8.187c0-5.444 1.814-8.166 9.073-8.166h32.666M0 21.931C0 9.228 0 .154 19.962.154h88.924V15.58c0 .907-.908 1.814-1.815 1.814H54.443c-7.26 0-10.889 3.63-10.889 10.889v40.832h62.61v16.333c0 1.815-.908 1.815-2.723 1.815H42.647v64.424c0 6.351-3.63 9.074-9.981 8.166H0V21.931M172.274.005V122.5c0 10.889 1.814 18.148 9.073 21.777 9.982 5.444 26.314 5.444 37.203 0 7.259-3.63 9.981-9.981 9.981-22.684V7.264c0-5.445 1.815-8.167 9.074-8.167h31.758v118.867c0 27.221-17.24 39.017-32.665 43.554-20.87 5.445-51.721 5.445-70.776 0-22.685-7.259-33.573-20.87-33.573-42.647V8.171c-.908-5.444.907-8.166 7.259-8.166h32.666M952.67.03c-8.166 0-12.703 3.63-14.518 10.889l-26.314 110.7h-.907L883.709.029h-37.202c-7.26 0-9.074 3.63-9.074 9.075v151.532h15.425c2.722 0 3.63-.907 3.63-3.63V29.975h2.722l33.573 130.662h21.777c8.167 0 11.796-3.63 13.61-11.796l29.944-118.866h2.723v130.662h29.036c7.259 0 10.888-2.722 10.888-9.98V.03h-48.09M464.864 87.266h-40.832v73.498h32.666c5.444 0 9.073-1.815 9.073-8.166-.907 0-.907-31.758-.907-65.332"/><path d="M-1.5.2c.2.1.3.2.3.5v5.7h-3.5c-.8 0-1-.4-1-.9v-8.6L-1.5.2" style="fill:#ed1a3a" transform="matrix(9.0738 0 0 -9.0738 476.003 57.69)"/><path d="M321.534 147.94c18.148-2.722 23.592-13.61 23.592-29.036V8.204c0-6.352 3.63-9.074 8.166-9.074h32.666v105.256c0 25.407-5.444 39.017-20.87 49.906-7.259 5.444-20.87 11.796-50.813 11.796-17.24 0-24.5-.907-26.314-.907-1.815 0-1.815-.908-1.815-2.723v-13.61c7.26.907 22.685.907 35.388-.908M527.302.005c-19.963 0-19.963 9.98-19.963 21.777v41.74c0 .907 0 .907-.907 1.814l-28.129 21.777h29.036v73.498h32.666c7.26 0 9.981-2.722 9.981-8.166V88.02h59.887c1.815 0 2.723-.907 2.723-1.814V69.873h-62.61V29.04c0-7.26 3.63-10.889 10.889-10.889h53.535c1.815 0 1.815-.907 1.815-1.815V.912h-88.923"/></svg>