<svg height="50" width="135" xmlns="http://www.w3.org/2000/svg"><path d="M9.831 37c3.56 0 5.724-1.203 8.517-3.993 1.972-1.969 3.369-4.622 3.56-7.985H11.83l-2.245 2.242v2.57h7.997c-.493.767-2.219 2.189-5.286 2.189-4.19 0-7.449-3.173-7.449-7.603 0-1.97.548-3.337 1.342-4.13.794-.793 1.917-1.285 3.697-1.285 2.054 0 4.245.738 6.08 2.27l2.656-2.462.301-.82c-1.588-1.121-4.19-2.215-6.627-2.215-4.573 0-8.325 3.391-8.325 8.56 0 5.005 3.697 8.505 8.325 8.505 4.875 0 6.983-3.172 7.64-6.126h-7.558v-.93h8.681c-.465 3.884-3.286 8.04-8.763 8.04-5.368 0-9.448-4.13-9.448-9.49 0-5.688 4.601-9.544 9.448-9.544 2.82 0 5.34 1.121 6.929 2.297l.274-.847C17.883 15.176 15.418 14 12.35 14c-3.259 0-5.915 1.368-8.134 3.583C1.48 20.317 0 23.435 0 26.936 0 32.898 4.902 37 9.831 37zm16.623-22.535h-.822l-2.464 2.461v19.61h9.092l2.382-2.38v-.766h-8.188zm1.862 0h-.821V32.46h7.147v-.765h-6.326zm17.828 3.227l-4.436 11.076h8.654zm.383 10.31H42.83l1.917-4.73zm-5.394 4.65h7.12l1.479 3.965h2.163l2.465-2.461-7.833-20.128h-.766l-3.259 3.281-7.75 19.308h3.34l2.465-2.461zm12.05.738h-1.096l-1.37-3.692h-9.365l-1.397 3.692h-1.068l7.202-18.241h.11zm5.476-17.722h.082l8.572 11.65 8.49-11.65h.082V33.39h-.986V18.677l-7.586 10.31h-.027l-7.64-10.338V33.39h-.987zm-.821-1.394l-2.465 2.46v19.883h2.63l2.464-2.461-.028-8.506 4.957 6.564h.548l5.669-7.767v12.17h2.629l2.464-2.461V14.274h-.794l-3.861 2.762-5.669 7.63-7.778-10.392zm37.71 12.443c0 1.723-.466 3.063-1.343 3.938-.876.875-2.026 1.368-3.751 1.368-4.52 0-7.532-3.364-7.532-7.795 0-1.887.521-3.309 1.397-4.184s2.191-1.367 3.999-1.367c4.162 0 7.23 3.172 7.23 8.04zM80.922 24.31c0-5.278 4.218-9.517 9.448-9.517 5.313 0 9.448 4.157 9.448 9.517 0 5.279-4.217 9.518-9.448 9.518-5.313 0-9.448-4.157-9.448-9.518zm1.123 0c0 4.868 3.588 8.533 8.325 8.533s8.325-3.692 8.325-8.533c0-4.868-3.587-8.532-8.325-8.532s-8.325 3.664-8.325 8.532zm18.622-.054c0-5.743-4.546-10.256-10.242-10.256-3.259 0-5.915 1.368-8.133 3.583-2.739 2.734-4.218 5.825-4.218 9.353C78.075 32.898 83.06 37 88.125 37c3.15 0 5.752-1.203 8.107-3.555 3.505-3.5 4.436-6.318 4.436-9.19zm13.556 10.036c1.56-1.558 3.094-3.746 3.094-6.727v-13.1h-.821V27.51c0 3.637-2.164 6.263-5.724 6.263s-5.723-2.68-5.723-6.263V14.465h-.822l-2.465 2.461V29.59c0 3.992 2.657 7.165 6.82 7.165 2.163 0 3.806-.63 5.64-2.462zm-2.711-2.816c-.302.3-.74.465-1.342.465-.712 0-1.424-.274-2.027-.848-.74-.711-1.232-1.805-1.232-3.72V14.465h-.822v12.963c0 3.2 1.698 5.36 4.683 5.36s4.683-2.16 4.683-5.333v-12.99h-.822l-2.437 2.461v11.541c0 1.86-.273 2.598-.684 3.009zm11.912-15.315v10.747h2.136c3.834 0 6.408-1.804 6.408-5.551 0-3.227-2.464-5.196-6.189-5.196zm.795 9.982v-7.056h.793c1.343 0 2.328.492 3.013 1.203a3.703 3.703 0 0 1 1.04 2.598c0 .93-.246 1.832-.739 2.352-.575.602-1.177.903-2.656.903zm7.996 7.247h-1.479l-6.956-5.634h-.356v5.634h-1.04V15.23h3.423c4.162 0 7.202 2.38 7.202 6.072 0 4.212-3.204 6.454-7.476 6.454h-.329zm-7.97-.82l4.903 4.047h2.848l2.465-2.461-5.833-4.677c1.341-1.012 2.902-2.489 3.779-3.665.41-.546 1.478-2.105 1.478-4.512 0-4.157-3.231-6.837-8.05-6.837h-4.273l-2.465 2.461v19.691h2.684l2.465-2.461z"/></svg>